<?xml version="1.0" standalone="no"?>
<!DOCTYPE svg PUBLIC "-//W3C//DTD SVG 20010904//EN"
 "http://www.w3.org/TR/2001/REC-SVG-20010904/DTD/svg10.dtd">
<svg version="1.0" xmlns="http://www.w3.org/2000/svg"
 width="968.000000pt" height="968.000000pt" viewBox="0 0 968.000000 968.000000"
 preserveAspectRatio="xMidYMid meet">
<metadata>
Created by potrace 1.14, written by Peter Selinger 2001-2017
</metadata>
<g transform="translate(0.000000,968.000000) scale(0.100000,-0.100000)"
fill="#000000" stroke="none">
<path d="M3839 8858 c0 -2 -2 -21 -4 -43 -1 -22 -5 -76 -9 -120 -4 -44 -9
-109 -11 -145 -3 -36 -7 -90 -10 -120 -10 -104 -19 -216 -29 -357 -3 -35 -7
-86 -10 -115 -3 -29 -8 -89 -11 -133 -4 -44 -8 -98 -10 -120 -2 -22 -7 -76
-10 -120 -3 -44 -8 -109 -12 -145 -3 -36 -6 -81 -8 -100 -9 -127 -17 -220 -21
-252 -3 -20 -7 -74 -9 -120 -3 -46 -5 -83 -6 -83 -1 0 -2 -16 -4 -35 -3 -49
-14 -185 -20 -250 -3 -30 -7 -80 -10 -110 -3 -49 -7 -95 -19 -251 -2 -25 -7
-76 -10 -115 -4 -38 -9 -98 -11 -134 -8 -122 -15 -193 -19 -197 -2 -3 -7 26
-11 64 -3 37 -8 82 -11 98 -3 17 -7 46 -10 65 -8 54 -43 219 -60 280 -8 30
-16 62 -18 70 -2 8 -14 42 -25 75 -12 33 -23 65 -25 70 -2 6 -8 23 -14 38 -7
16 -12 31 -12 34 0 3 -23 53 -51 111 -124 255 -292 439 -502 551 -42 22 -84
41 -92 41 -8 0 -15 5 -15 12 0 6 -3 9 -6 5 -3 -3 -22 0 -42 7 -87 31 -251 45
-367 32 -117 -13 -183 -32 -295 -84 -33 -15 -129 -79 -140 -93 -3 -3 -13 -10
-22 -15 -52 -29 -173 -162 -248 -274 -55 -82 -68 -105 -106 -180 -9 -19 -23
-42 -29 -50 -7 -8 -24 -45 -40 -82 -20 -48 -33 -68 -46 -68 -10 0 -21 5 -24
10 -3 6 -3 10 2 10 4 0 8 19 9 43 0 39 9 164 19 282 9 113 16 193 21 240 2 28
6 85 9 128 l4 77 -27 0 c-41 1 -662 1 -778 0 l-100 0 -3 -47 c-2 -27 -4 -64
-6 -83 -2 -19 -6 -69 -10 -110 -3 -41 -8 -95 -10 -120 -2 -25 -7 -83 -11 -130
-3 -47 -8 -101 -10 -120 -1 -19 -5 -73 -8 -120 -4 -47 -8 -98 -11 -115 -2 -16
-7 -70 -10 -120 -4 -49 -8 -106 -11 -125 -2 -19 -6 -69 -9 -110 -3 -41 -7 -97
-9 -125 -3 -27 -8 -86 -11 -130 -4 -44 -8 -96 -10 -115 -3 -31 -10 -122 -20
-260 -2 -25 -4 -45 -5 -45 -1 0 -3 -26 -5 -57 -1 -32 -6 -86 -9 -120 -11 -109
-16 -171 -20 -238 -3 -36 -8 -96 -11 -135 -4 -38 -8 -90 -10 -115 -2 -25 -6
-79 -10 -120 -3 -41 -8 -97 -10 -125 -5 -66 -14 -174 -21 -255 -7 -87 -12
-139 -19 -240 -3 -47 -8 -98 -10 -115 -6 -44 -16 -159 -21 -245 -2 -41 -6 -93
-9 -115 -2 -22 -7 -78 -11 -125 -3 -47 -7 -98 -9 -115 -2 -16 -6 -70 -9 -120
-4 -49 -9 -101 -11 -115 -5 -31 -18 -204 -19 -247 0 -18 -3 -33 -6 -33 -3 0
-5 -26 -6 -58 -1 -55 -10 -185 -18 -267 -6 -57 -18 -193 -21 -240 -3 -43 -13
-165 -21 -255 -8 -92 -13 -161 -19 -245 -3 -44 -8 -93 -10 -110 -2 -16 -7 -70
-10 -120 -4 -49 -9 -110 -11 -135 -2 -25 -6 -74 -9 -110 -2 -36 -7 -87 -10
-115 -2 -27 -7 -81 -10 -120 -3 -38 -8 -96 -11 -127 l-5 -58 461 0 c253 0 460
3 461 8 0 4 2 14 3 22 2 8 6 61 10 117 3 56 9 119 11 140 5 41 12 129 20 238
2 39 6 93 9 120 4 45 12 147 21 265 2 25 6 70 9 100 3 30 8 89 11 130 5 82 12
159 21 260 3 36 7 90 9 120 7 84 22 275 31 365 3 33 7 85 9 115 2 30 6 89 10
130 11 124 16 182 21 250 4 60 9 113 13 133 2 12 32 4 32 -8 1 -5 7 -26 15
-45 8 -19 15 -37 15 -40 -1 -14 21 -82 34 -107 8 -15 15 -33 15 -39 0 -20 90
-186 134 -248 115 -161 261 -266 431 -312 95 -26 320 -28 425 -5 90 20 210 62
247 87 13 8 23 12 23 9 0 -13 177 109 235 163 20 17 39 32 44 32 5 0 11 4 13
9 2 5 30 38 63 73 95 101 159 188 261 353 72 118 235 488 258 590 2 9 24 81
32 110 2 6 9 33 16 62 18 71 29 77 23 12 -3 -30 -7 -83 -11 -119 -3 -36 -7
-85 -9 -110 -2 -25 -7 -83 -10 -130 -3 -47 -8 -101 -10 -120 -6 -47 -16 -171
-20 -250 -2 -36 -5 -65 -6 -65 -1 0 -2 -20 -4 -45 -1 -25 -5 -74 -9 -110 -7
-68 -18 -212 -20 -267 -1 -18 -3 -33 -6 -33 -3 0 -5 -26 -5 -58 0 -31 -2 -74
-6 -94 -5 -29 -3 -37 10 -40 14 -3 885 -2 902 1 3 0 7 25 8 54 1 28 4 68 6 87
2 19 7 80 10 135 4 55 9 108 11 118 4 22 17 199 18 245 0 17 3 32 6 32 3 0 5
24 6 53 1 47 5 103 19 262 2 28 7 91 10 140 3 50 8 101 10 115 2 14 7 66 11
115 3 50 7 100 8 112 1 17 49 97 89 148 29 38 127 176 127 180 0 3 16 25 35
51 l35 45 11 -28 c22 -55 28 -69 48 -117 12 -27 21 -52 21 -56 0 -4 8 -25 17
-46 9 -22 17 -41 18 -44 1 -3 7 -18 13 -33 7 -16 12 -30 12 -33 0 -2 9 -23 19
-47 19 -42 32 -76 36 -89 2 -5 4 -10 5 -13 1 -3 3 -8 5 -12 1 -5 7 -21 14 -38
7 -16 24 -59 37 -95 14 -36 29 -74 34 -85 4 -11 41 -103 80 -205 40 -102 81
-204 91 -227 10 -24 19 -46 19 -50 0 -7 83 -220 105 -268 7 -16 46 -115 87
-220 l74 -189 528 -1 c290 0 532 3 538 6 5 3 -4 37 -22 80 -35 80 -47 109
-110 269 -23 58 -48 119 -55 135 -6 17 -24 62 -40 100 -15 39 -34 84 -43 100
-9 17 -15 32 -14 35 3 5 -6 28 -44 115 -7 17 -24 62 -39 100 -15 39 -33 84
-40 100 -7 17 -63 156 -125 310 -61 154 -118 294 -125 310 -7 17 -27 66 -44
110 -18 44 -36 89 -41 100 -4 11 -22 56 -40 100 -30 78 -40 101 -60 148 -5 12
-46 114 -91 227 -44 113 -87 219 -94 235 -39 86 -45 68 88 262 67 98 149 219
182 268 33 50 63 92 66 95 3 3 34 48 69 100 35 52 66 97 69 100 3 3 46 66 95
140 50 74 92 137 95 140 4 3 29 39 56 80 144 214 250 365 257 368 4 2 8 8 8
13 0 7 57 96 70 109 3 3 34 48 69 100 108 161 213 314 229 333 17 20 75 18
-627 17 -387 0 -415 -1 -430 -18 -18 -20 -38 -50 -48 -71 -3 -8 -15 -23 -25
-33 -10 -10 -18 -24 -18 -32 0 -8 -4 -16 -9 -18 -4 -1 -55 -72 -112 -157 -57
-84 -121 -178 -141 -208 -21 -30 -38 -59 -38 -64 0 -5 -3 -9 -8 -9 -4 0 -32
-38 -61 -85 -30 -47 -58 -85 -62 -85 -4 0 -10 -11 -13 -25 -4 -14 -11 -25 -16
-25 -6 0 -10 -7 -10 -15 0 -8 -3 -15 -7 -15 -5 0 -21 -21 -38 -48 -16 -26 -32
-49 -35 -52 -6 -6 -159 -232 -175 -258 -13 -21 -96 -144 -107 -157 -5 -5 -23
-32 -40 -60 -18 -27 -35 -52 -38 -55 -3 -3 -17 -23 -30 -45 -13 -22 -32 -49
-42 -59 -10 -11 -18 -24 -18 -28 0 -5 -8 -18 -18 -29 -11 -10 -25 -32 -33 -47
-14 -26 -32 -52 -56 -77 -7 -7 -21 -12 -30 -11 -14 2 -18 12 -16 37 1 39 11
170 18 232 3 37 12 136 20 247 1 19 6 76 10 125 4 50 8 108 10 130 5 75 17
220 30 358 6 71 16 202 20 257 2 25 6 74 9 110 4 36 8 90 11 120 9 129 16 218
21 260 10 105 17 198 18 247 0 29 3 53 6 53 3 0 6 26 6 58 1 31 5 82 8 112 3
30 9 91 12 135 9 128 13 170 14 170 1 0 3 27 5 60 3 58 10 137 20 255 2 30 7
87 10 125 6 81 15 186 20 233 l4 32 -459 0 c-253 0 -460 -1 -461 -2z m-1634
-2570 c65 -21 121 -55 170 -103 39 -38 115 -144 115 -161 0 -7 4 -14 8 -16 9
-3 68 -152 76 -189 3 -13 11 -49 19 -79 8 -30 17 -75 21 -100 3 -25 8 -56 11
-70 3 -14 7 -55 9 -92 2 -37 6 -70 8 -75 6 -10 1 -376 -5 -448 -5 -53 -15
-143 -23 -210 -2 -22 -9 -67 -15 -100 -6 -33 -13 -71 -15 -85 -2 -14 -7 -36
-10 -50 -3 -14 -7 -32 -9 -40 -19 -95 -93 -324 -131 -408 -19 -41 -34 -78 -34
-83 0 -5 -5 -9 -10 -9 -6 0 -9 -3 -8 -8 8 -21 -140 -226 -196 -271 -10 -9 -27
-24 -38 -34 -24 -23 -145 -83 -183 -91 -16 -4 -41 -9 -55 -12 -57 -13 -173 -4
-234 17 -132 47 -217 126 -296 274 -29 55 -85 208 -94 259 -2 12 -7 32 -10 46
-10 41 -16 82 -22 134 -3 27 -9 69 -14 95 -9 49 -6 535 4 611 12 92 16 126 21
170 3 25 8 56 11 70 2 14 7 39 9 55 6 41 13 72 25 126 6 26 13 55 15 65 2 11
4 19 5 19 1 0 3 7 5 15 1 8 11 42 21 75 10 33 19 65 20 70 11 51 116 279 140
302 8 8 14 21 14 29 0 8 5 14 10 14 6 0 10 5 10 12 0 13 93 123 128 151 12 10
28 24 35 31 17 17 85 58 128 78 33 14 105 32 164 41 45 6 144 -6 200 -25z"/>
<path d="M8759 8838 c-2 -38 -17 -240 -24 -323 -7 -76 -16 -184 -20 -240 -6
-75 -15 -184 -20 -240 -2 -27 -7 -84 -11 -125 -3 -41 -7 -91 -9 -110 -2 -19
-6 -75 -9 -125 -4 -49 -9 -106 -11 -126 -3 -19 -7 -69 -10 -110 -7 -108 -14
-208 -20 -254 -2 -22 -7 -78 -10 -125 -3 -47 -8 -105 -11 -130 -3 -25 -7 -74
-10 -110 -2 -36 -7 -96 -10 -135 -9 -97 -12 -126 -13 -157 -1 -34 -35 -32 -39
3 -9 64 -91 271 -152 384 -130 241 -343 397 -588 431 -40 5 -231 6 -240 1 -4
-3 -28 -8 -54 -11 -104 -14 -308 -95 -384 -153 -17 -12 -36 -23 -42 -23 -7 0
-12 -4 -12 -9 0 -5 -17 -20 -37 -32 -43 -26 -221 -201 -274 -268 -36 -47 -129
-179 -129 -185 0 -1 -22 -41 -50 -87 -27 -46 -50 -90 -50 -96 0 -7 -4 -13 -10
-13 -5 0 -9 -3 -8 -7 1 -8 -51 -126 -73 -166 -33 -61 -125 -336 -165 -497 -2
-8 -8 -33 -14 -55 -6 -22 -13 -51 -15 -65 -2 -14 -7 -36 -10 -50 -12 -60 -25
-127 -29 -155 -3 -16 -10 -61 -17 -100 -6 -38 -13 -88 -15 -110 -1 -22 -3 -40
-4 -40 -1 0 -3 -11 -5 -25 -14 -129 -19 -174 -29 -290 -28 -313 -22 -783 13
-1000 6 -36 13 -81 15 -100 3 -19 12 -71 21 -115 10 -44 18 -85 19 -92 1 -7 5
-16 9 -19 4 -4 7 -15 7 -25 0 -25 75 -249 106 -318 64 -141 155 -295 215 -366
72 -84 206 -205 228 -205 6 0 11 -4 11 -9 0 -12 209 -113 237 -113 4 0 19 -5
33 -10 79 -30 356 -32 465 -4 77 21 190 69 218 93 9 9 17 13 17 9 0 -5 16 6
35 23 20 17 39 31 44 31 12 0 174 160 207 205 16 22 32 42 35 45 20 17 118
183 167 282 41 84 62 117 75 118 19 0 19 -33 2 -210 -5 -62 -16 -185 -20 -245
-2 -27 -7 -88 -11 -135 -4 -47 -7 -103 -8 -125 l-1 -40 449 0 c290 0 450 4
452 10 2 6 6 44 9 85 5 89 13 185 21 260 3 30 7 84 9 120 3 36 7 85 10 110 2
25 7 83 11 130 3 47 7 103 9 125 11 117 19 216 30 370 2 22 6 76 10 120 4 44
8 98 10 120 2 22 6 69 9 105 5 60 12 146 21 260 5 75 16 202 21 250 2 25 6 77
9 115 6 83 14 170 20 239 3 28 7 83 10 121 2 39 7 98 10 132 3 34 7 90 10 125
2 35 5 63 6 63 0 0 2 20 4 45 3 59 15 215 20 265 6 48 14 147 20 230 2 33 6
87 9 120 3 33 8 96 12 140 3 44 8 96 10 115 1 19 6 72 9 118 3 45 8 101 10
125 3 23 8 76 11 117 15 199 23 301 29 365 2 28 7 84 10 125 8 111 13 179 19
240 6 61 14 149 21 255 6 77 11 143 19 220 3 28 8 91 11 140 3 50 8 106 10
125 2 19 6 73 10 120 3 47 8 101 10 120 2 19 6 73 10 120 3 47 8 105 10 130 2
25 7 75 10 113 l5 67 -460 0 -460 0 -1 -22z m-766 -2539 c105 -25 210 -98 273
-191 16 -24 31 -45 34 -48 8 -8 80 -165 85 -186 3 -10 14 -51 24 -90 11 -39
22 -86 25 -105 3 -19 8 -45 11 -59 3 -14 8 -50 11 -80 3 -30 7 -71 9 -90 5
-46 5 -378 0 -453 -4 -74 -22 -234 -31 -287 -2 -14 -7 -45 -10 -70 -3 -25 -10
-65 -16 -90 -5 -25 -11 -54 -14 -65 -2 -11 -6 -32 -10 -47 -3 -15 -5 -30 -5
-33 0 -2 -6 -20 -15 -40 -8 -19 -12 -35 -10 -35 2 0 -10 -37 -26 -82 -16 -46
-33 -97 -39 -114 -18 -59 -134 -283 -158 -304 -4 -3 -18 -21 -33 -41 -58 -78
-198 -192 -235 -192 -7 0 -13 -4 -13 -8 0 -4 -15 -11 -32 -15 -18 -4 -40 -9
-48 -11 -77 -20 -185 -19 -256 2 -98 28 -174 83 -252 181 -25 30 -122 225
-122 243 0 6 -7 30 -14 53 -8 24 -18 59 -21 78 -3 19 -8 42 -10 50 -4 14 -7
32 -19 108 -19 115 -25 449 -11 612 11 141 24 263 32 295 2 11 6 34 8 50 11
84 35 196 60 285 8 30 17 63 20 73 9 37 49 145 83 222 93 213 229 374 377 448
43 21 107 39 180 50 34 5 118 -2 168 -14z"/>
</g>
</svg>
